<svg width="1200" height="720" viewBox="0 0 1200 720" xmlns="http://www.w3.org/2000/svg">
  <defs>
    <style>
      text { font-family: "Times New Roman", "Noto Serif", serif; fill:#111827; }
      .title { font-size:28px; font-weight:bold; }
      .subtitle { font-size:20px; font-weight:bold; }
      .label { font-size:15px; }
      .small { font-size:13px; fill:#374151; }
      .panel { fill:#ffffff; stroke:#111827; stroke-width:1.4; rx:12; }
      .grid { stroke:#94a3b8; stroke-width:1; }
      .covered { fill:#93c5fd; }
      .uncovered { fill:#fde68a; }
      .obstacle { fill:#111827; }
      .current-cell { fill:#ef4444; stroke:#991b1b; stroke-width:2; }
      .next-cell { fill:#22c55e; stroke:#166534; stroke-width:2; }
      .synapse { stroke:#64748b; stroke-width:0.9; opacity:0.42; }
      .neuron-pos { fill:#facc15; stroke:#92400e; stroke-width:1.4; }
      .neuron-zero { fill:#93c5fd; stroke:#1d4ed8; stroke-width:1.4; }
      .neuron-neg { fill:#111827; stroke:#000000; stroke-width:1.4; }
      .history { fill:none; stroke:#2563eb; stroke-width:4.2; stroke-linecap:round; stroke-linejoin:round; }
      .candidate { fill:none; stroke:#7c3aed; stroke-width:2; stroke-dasharray:6 5; opacity:0.58; stroke-linecap:round; stroke-linejoin:round; }
      .best { fill:none; stroke:#dc2626; stroke-width:4; stroke-linecap:round; stroke-linejoin:round; marker-end:url(#arrowhead); }
      .arrow { stroke:#dc2626; stroke-width:3; marker-end:url(#arrowhead); }
    </style>

    <marker id="arrowhead" markerWidth="10" markerHeight="8" refX="9" refY="4" orient="auto">
      <polygon points="0 0,10 4,0 8" fill="#dc2626"/>
    </marker>

    <!-- 8 x 8 cell-state matrix.
         It is constructed to match the boustrophedon-like partial trajectory in panel (c).
         Covered cells are those already swept by the USV. -->
    <g id="cell-state-layer">
      <!-- row 0 -->
      <rect x="30" y="55" width="30" height="30" class="covered grid"/>
      <rect x="60" y="55" width="30" height="30" class="covered grid"/>
      <rect x="90" y="55" width="30" height="30" class="covered grid"/>
      <rect x="120" y="55" width="30" height="30" class="covered grid"/>
      <rect x="150" y="55" width="30" height="30" class="covered grid"/>
      <rect x="180" y="55" width="30" height="30" class="covered grid"/>
      <rect x="210" y="55" width="30" height="30" class="covered grid"/>
      <rect x="240" y="55" width="30" height="30" class="covered grid"/>

      <!-- row 1 -->
      <rect x="30" y="85" width="30" height="30" class="covered grid"/>
      <rect x="60" y="85" width="30" height="30" class="covered grid"/>
      <rect x="90" y="85" width="30" height="30" class="covered grid"/>
      <rect x="120" y="85" width="30" height="30" class="covered grid"/>
      <rect x="150" y="85" width="30" height="30" class="covered grid"/>
      <rect x="180" y="85" width="30" height="30" class="covered grid"/>
      <rect x="210" y="85" width="30" height="30" class="covered grid"/>
      <rect x="240" y="85" width="30" height="30" class="covered grid"/>

      <!-- row 2 -->
      <rect x="30" y="115" width="30" height="30" class="covered grid"/>
      <rect x="60" y="115" width="30" height="30" class="covered grid"/>
      <rect x="90" y="115" width="30" height="30" class="covered grid"/>
      <rect x="120" y="115" width="30" height="30" class="covered grid"/>
      <rect x="150" y="115" width="30" height="30" class="obstacle grid"/>
      <rect x="180" y="115" width="30" height="30" class="obstacle grid"/>
      <rect x="210" y="115" width="30" height="30" class="uncovered grid"/>
      <rect x="240" y="115" width="30" height="30" class="uncovered grid"/>

      <!-- row 3 -->
      <rect x="30" y="145" width="30" height="30" class="covered grid"/>
      <rect x="60" y="145" width="30" height="30" class="covered grid"/>
      <rect x="90" y="145" width="30" height="30" class="covered grid"/>
      <rect x="120" y="145" width="30" height="30" class="covered grid"/>
      <rect x="150" y="145" width="30" height="30" class="obstacle grid"/>
      <rect x="180" y="145" width="30" height="30" class="obstacle grid"/>
      <rect x="210" y="145" width="30" height="30" class="uncovered grid"/>
      <rect x="240" y="145" width="30" height="30" class="uncovered grid"/>

      <!-- row 4: current row, already partly covered -->
      <rect x="30" y="175" width="30" height="30" class="covered grid"/>
      <rect x="60" y="175" width="30" height="30" class="covered grid"/>
      <rect x="90" y="175" width="30" height="30" class="covered grid"/>
      <rect x="120" y="175" width="30" height="30" class="covered grid"/>
      <rect x="150" y="175" width="30" height="30" class="covered grid"/>
      <rect x="180" y="175" width="30" height="30" class="covered grid"/>
      <rect x="210" y="175" width="30" height="30" class="uncovered grid"/>
      <rect x="240" y="175" width="30" height="30" class="uncovered grid"/>

      <!-- row 5 -->
      <rect x="30" y="205" width="30" height="30" class="uncovered grid"/>
      <rect x="60" y="205" width="30" height="30" class="uncovered grid"/>
      <rect x="90" y="205" width="30" height="30" class="uncovered grid"/>
      <rect x="120" y="205" width="30" height="30" class="uncovered grid"/>
      <rect x="150" y="205" width="30" height="30" class="uncovered grid"/>
      <rect x="180" y="205" width="30" height="30" class="uncovered grid"/>
      <rect x="210" y="205" width="30" height="30" class="uncovered grid"/>
      <rect x="240" y="205" width="30" height="30" class="uncovered grid"/>

      <!-- row 6 -->
      <rect x="30" y="235" width="30" height="30" class="uncovered grid"/>
      <rect x="60" y="235" width="30" height="30" class="uncovered grid"/>
      <rect x="90" y="235" width="30" height="30" class="uncovered grid"/>
      <rect x="120" y="235" width="30" height="30" class="uncovered grid"/>
      <rect x="150" y="235" width="30" height="30" class="uncovered grid"/>
      <rect x="180" y="235" width="30" height="30" class="uncovered grid"/>
      <rect x="210" y="235" width="30" height="30" class="uncovered grid"/>
      <rect x="240" y="235" width="30" height="30" class="uncovered grid"/>

      <!-- row 7 -->
      <rect x="30" y="265" width="30" height="30" class="uncovered grid"/>
      <rect x="60" y="265" width="30" height="30" class="uncovered grid"/>
      <rect x="90" y="265" width="30" height="30" class="uncovered grid"/>
      <rect x="120" y="265" width="30" height="30" class="uncovered grid"/>
      <rect x="150" y="265" width="30" height="30" class="uncovered grid"/>
      <rect x="180" y="265" width="30" height="30" class="uncovered grid"/>
      <rect x="210" y="265" width="30" height="30" class="uncovered grid"/>
      <rect x="240" y="265" width="30" height="30" class="uncovered grid"/>
    </g>

    <g id="eight-neighbor-links">
      <path d="M45 70 H255 M45 100 H255 M45 130 H255 M45 160 H255 M45 190 H255 M45 220 H255 M45 250 H255 M45 280 H255" class="synapse"/>
      <path d="M45 70 V280 M75 70 V280 M105 70 V280 M135 70 V280 M165 70 V280 M195 70 V280 M225 70 V280 M255 70 V280" class="synapse"/>
      <path d="M45 70 L255 280 M75 70 L255 250 M105 70 L255 220 M135 70 L255 190 M165 70 L255 160 M195 70 L255 130 M225 70 L255 100 M45 100 L225 280 M45 130 L195 280 M45 160 L165 280 M45 190 L135 280 M45 220 L105 280 M45 250 L75 280" class="synapse"/>
      <path d="M255 70 L45 280 M225 70 L45 250 M195 70 L45 220 M165 70 L45 190 M135 70 L45 160 M105 70 L45 130 M75 70 L45 100 M255 100 L75 280 M255 130 L105 280 M255 160 L135 280 M255 190 L165 280 M255 220 L195 280 M255 250 L225 280" class="synapse"/>
    </g>

    <g id="neuron-layer">
      <use href="#eight-neighbor-links"/>

      <!-- neurons match the updated cell-state matrix -->
      <!-- row 0 -->
      <circle cx="45" cy="70" r="7.5" class="neuron-zero"/>
      <circle cx="75" cy="70" r="7.5" class="neuron-zero"/>
      <circle cx="105" cy="70" r="7.5" class="neuron-zero"/>
      <circle cx="135" cy="70" r="7.5" class="neuron-zero"/>
      <circle cx="165" cy="70" r="7.5" class="neuron-zero"/>
      <circle cx="195" cy="70" r="7.5" class="neuron-zero"/>
      <circle cx="225" cy="70" r="7.5" class="neuron-zero"/>
      <circle cx="255" cy="70" r="7.5" class="neuron-zero"/>
      <!-- row 1 -->
      <circle cx="45" cy="100" r="7.5" class="neuron-zero"/>
      <circle cx="75" cy="100" r="7.5" class="neuron-zero"/>
      <circle cx="105" cy="100" r="7.5" class="neuron-zero"/>
      <circle cx="135" cy="100" r="7.5" class="neuron-zero"/>
      <circle cx="165" cy="100" r="7.5" class="neuron-zero"/>
      <circle cx="195" cy="100" r="7.5" class="neuron-zero"/>
      <circle cx="225" cy="100" r="7.5" class="neuron-zero"/>
      <circle cx="255" cy="100" r="7.5" class="neuron-zero"/>
      <!-- row 2 -->
      <circle cx="45" cy="130" r="7.5" class="neuron-zero"/>
      <circle cx="75" cy="130" r="7.5" class="neuron-zero"/>
      <circle cx="105" cy="130" r="7.5" class="neuron-zero"/>
      <circle cx="135" cy="130" r="7.5" class="neuron-zero"/>
      <circle cx="165" cy="130" r="7.5" class="neuron-neg"/>
      <circle cx="195" cy="130" r="7.5" class="neuron-neg"/>
      <circle cx="225" cy="130" r="7.5" class="neuron-pos"/>
      <circle cx="255" cy="130" r="7.5" class="neuron-pos"/>
      <!-- row 3 -->
      <circle cx="45" cy="160" r="7.5" class="neuron-zero"/>
      <circle cx="75" cy="160" r="7.5" class="neuron-zero"/>
      <circle cx="105" cy="160" r="7.5" class="neuron-zero"/>
      <circle cx="135" cy="160" r="7.5" class="neuron-zero"/>
      <circle cx="165" cy="160" r="7.5" class="neuron-neg"/>
      <circle cx="195" cy="160" r="7.5" class="neuron-neg"/>
      <circle cx="225" cy="160" r="7.5" class="neuron-pos"/>
      <circle cx="255" cy="160" r="7.5" class="neuron-pos"/>
      <!-- row 4 -->
      <circle cx="45" cy="190" r="7.5" class="neuron-zero"/>
      <circle cx="75" cy="190" r="7.5" class="neuron-zero"/>
      <circle cx="105" cy="190" r="7.5" class="neuron-zero"/>
      <circle cx="135" cy="190" r="7.5" class="neuron-zero"/>
      <circle cx="165" cy="190" r="7.5" class="neuron-zero"/>
      <circle cx="195" cy="190" r="7.5" class="neuron-zero"/>
      <circle cx="225" cy="190" r="7.5" class="neuron-pos"/>
      <circle cx="255" cy="190" r="7.5" class="neuron-pos"/>
      <!-- row 5 -->
      <circle cx="45" cy="220" r="7.5" class="neuron-pos"/>
      <circle cx="75" cy="220" r="7.5" class="neuron-pos"/>
      <circle cx="105" cy="220" r="7.5" class="neuron-pos"/>
      <circle cx="135" cy="220" r="7.5" class="neuron-pos"/>
      <circle cx="165" cy="220" r="7.5" class="neuron-pos"/>
      <circle cx="195" cy="220" r="7.5" class="neuron-pos"/>
      <circle cx="225" cy="220" r="7.5" class="neuron-pos"/>
      <circle cx="255" cy="220" r="7.5" class="neuron-pos"/>
      <!-- row 6 -->
      <circle cx="45" cy="250" r="7.5" class="neuron-pos"/>
      <circle cx="75" cy="250" r="7.5" class="neuron-pos"/>
      <circle cx="105" cy="250" r="7.5" class="neuron-pos"/>
      <circle cx="135" cy="250" r="7.5" class="neuron-pos"/>
      <circle cx="165" cy="250" r="7.5" class="neuron-pos"/>
      <circle cx="195" cy="250" r="7.5" class="neuron-pos"/>
      <circle cx="225" cy="250" r="7.5" class="neuron-pos"/>
      <circle cx="255" cy="250" r="7.5" class="neuron-pos"/>
      <!-- row 7 -->
      <circle cx="45" cy="280" r="7.5" class="neuron-pos"/>
      <circle cx="75" cy="280" r="7.5" class="neuron-pos"/>
      <circle cx="105" cy="280" r="7.5" class="neuron-pos"/>
      <circle cx="135" cy="280" r="7.5" class="neuron-pos"/>
      <circle cx="165" cy="280" r="7.5" class="neuron-pos"/>
      <circle cx="195" cy="280" r="7.5" class="neuron-pos"/>
      <circle cx="225" cy="280" r="7.5" class="neuron-pos"/>
      <circle cx="255" cy="280" r="7.5" class="neuron-pos"/>
    </g>
  </defs>

  <text x="600" y="42" text-anchor="middle" class="title">
    Three-Layer Correspondence and Boustrophedon-Like Decision Snapshot
  </text>

  <g transform="translate(45 80)">
    <rect x="0" y="0" width="300" height="340" class="panel"/>
    <text x="150" y="30" text-anchor="middle" class="subtitle">(a) Environment cell layer</text>
    <use href="#cell-state-layer"/>
    <text x="28" y="318" class="small">Cell = grid = sensing unit</text>
  </g>

  <g transform="translate(450 80)">
    <rect x="0" y="0" width="300" height="340" class="panel"/>
    <text x="150" y="30" text-anchor="middle" class="subtitle">(b) Single-layer GBNN</text>
    <use href="#neuron-layer"/>
    <text x="28" y="318" class="small">Covered: zero; uncovered: positive; obstacle: inhibitory</text>
  </g>

  <g transform="translate(855 80)">
    <rect x="0" y="0" width="300" height="340" class="panel"/>
    <text x="150" y="30" text-anchor="middle" class="subtitle">(c) Path-layer decision snapshot</text>
    <use href="#cell-state-layer"/>

    <!-- Realistic partial running process: already swept row by row, now at a row end. -->
    <polyline class="history"
      points="
      45,70 75,70 105,70 135,70 165,70 195,70 225,70 255,70
      255,100 225,100 195,100 165,100 135,100 105,100 75,100 45,100
      45,130 75,130 105,130 135,130
      135,160 105,160 75,160 45,160
      45,190 75,190 105,190 135,190 165,190 195,190"/>

    <circle cx="225" cy="190" r="8" class="next-cell"/>

    <!-- BFS-like rolling candidate tree.
         The tree starts from the red current cell.
         Each independent path tries all feasible 8-neighbor moves for 3 steps.
         Candidate nodes stay inside yellow cells; branches may cross or overlap. -->

    <!-- BFS edges: step 1 -->
    <line x1="195" y1="190" x2="225" y2="160" class="candidate"/>
    <line x1="195" y1="190" x2="225" y2="190" class="candidate"/>
    <line x1="195" y1="190" x2="165" y2="220" class="candidate"/>
    <line x1="195" y1="190" x2="195" y2="220" class="candidate"/>
    <line x1="195" y1="190" x2="225" y2="220" class="candidate"/>

    <!-- BFS edges: step 2 -->
    <line x1="225" y1="160" x2="225" y2="130" class="candidate"/>
    <line x1="225" y1="160" x2="255" y2="130" class="candidate"/>
    <line x1="225" y1="160" x2="255" y2="160" class="candidate"/>
    <line x1="225" y1="160" x2="225" y2="190" class="candidate"/>
    <line x1="225" y1="160" x2="255" y2="190" class="candidate"/>
    <line x1="225" y1="190" x2="225" y2="160" class="candidate"/>
    <line x1="225" y1="190" x2="255" y2="160" class="candidate"/>
    <line x1="225" y1="190" x2="255" y2="190" class="candidate"/>
    <line x1="225" y1="190" x2="195" y2="220" class="candidate"/>
    <line x1="225" y1="190" x2="225" y2="220" class="candidate"/>
    <line x1="225" y1="190" x2="255" y2="220" class="candidate"/>
    <line x1="165" y1="220" x2="135" y2="220" class="candidate"/>
    <line x1="165" y1="220" x2="195" y2="220" class="candidate"/>
    <line x1="165" y1="220" x2="135" y2="250" class="candidate"/>
    <line x1="165" y1="220" x2="165" y2="250" class="candidate"/>
    <line x1="165" y1="220" x2="195" y2="250" class="candidate"/>
    <line x1="195" y1="220" x2="225" y2="190" class="candidate"/>
    <line x1="195" y1="220" x2="165" y2="220" class="candidate"/>
    <line x1="195" y1="220" x2="225" y2="220" class="candidate"/>
    <line x1="195" y1="220" x2="165" y2="250" class="candidate"/>
    <line x1="195" y1="220" x2="195" y2="250" class="candidate"/>
    <line x1="195" y1="220" x2="225" y2="250" class="candidate"/>
    <line x1="225" y1="220" x2="225" y2="190" class="candidate"/>
    <line x1="225" y1="220" x2="255" y2="190" class="candidate"/>
    <line x1="225" y1="220" x2="195" y2="220" class="candidate"/>
    <line x1="225" y1="220" x2="255" y2="220" class="candidate"/>
    <line x1="225" y1="220" x2="195" y2="250" class="candidate"/>
    <line x1="225" y1="220" x2="225" y2="250" class="candidate"/>
    <line x1="225" y1="220" x2="255" y2="250" class="candidate"/>

    <!-- BFS edges: step 3 -->
    <line x1="225" y1="130" x2="255" y2="130" class="candidate"/>
    <line x1="225" y1="130" x2="225" y2="160" class="candidate"/>
    <line x1="225" y1="130" x2="255" y2="160" class="candidate"/>
    <line x1="255" y1="130" x2="225" y2="130" class="candidate"/>
    <line x1="255" y1="130" x2="225" y2="160" class="candidate"/>
    <line x1="255" y1="130" x2="255" y2="160" class="candidate"/>
    <line x1="255" y1="160" x2="225" y2="130" class="candidate"/>
    <line x1="255" y1="160" x2="255" y2="130" class="candidate"/>
    <line x1="255" y1="160" x2="225" y2="160" class="candidate"/>
    <line x1="255" y1="160" x2="225" y2="190" class="candidate"/>
    <line x1="255" y1="160" x2="255" y2="190" class="candidate"/>
    <line x1="225" y1="190" x2="225" y2="160" class="candidate"/>
    <line x1="225" y1="190" x2="255" y2="160" class="candidate"/>
    <line x1="225" y1="190" x2="255" y2="190" class="candidate"/>
    <line x1="225" y1="190" x2="195" y2="220" class="candidate"/>
    <line x1="225" y1="190" x2="225" y2="220" class="candidate"/>
    <line x1="225" y1="190" x2="255" y2="220" class="candidate"/>
    <line x1="255" y1="190" x2="225" y2="160" class="candidate"/>
    <line x1="255" y1="190" x2="255" y2="160" class="candidate"/>
    <line x1="255" y1="190" x2="225" y2="190" class="candidate"/>
    <line x1="255" y1="190" x2="225" y2="220" class="candidate"/>
    <line x1="255" y1="190" x2="255" y2="220" class="candidate"/>
    <line x1="225" y1="160" x2="225" y2="130" class="candidate"/>
    <line x1="225" y1="160" x2="255" y2="130" class="candidate"/>
    <line x1="225" y1="160" x2="255" y2="160" class="candidate"/>
    <line x1="225" y1="160" x2="225" y2="190" class="candidate"/>
    <line x1="225" y1="160" x2="255" y2="190" class="candidate"/>
    <line x1="195" y1="220" x2="225" y2="190" class="candidate"/>
    <line x1="195" y1="220" x2="165" y2="220" class="candidate"/>
    <line x1="195" y1="220" x2="225" y2="220" class="candidate"/>
    <line x1="195" y1="220" x2="165" y2="250" class="candidate"/>
    <line x1="195" y1="220" x2="195" y2="250" class="candidate"/>
    <line x1="195" y1="220" x2="225" y2="250" class="candidate"/>
    <line x1="225" y1="220" x2="225" y2="190" class="candidate"/>
    <line x1="225" y1="220" x2="255" y2="190" class="candidate"/>
    <line x1="225" y1="220" x2="195" y2="220" class="candidate"/>
    <line x1="225" y1="220" x2="255" y2="220" class="candidate"/>
    <line x1="225" y1="220" x2="195" y2="250" class="candidate"/>
    <line x1="225" y1="220" x2="225" y2="250" class="candidate"/>
    <line x1="225" y1="220" x2="255" y2="250" class="candidate"/>
    <line x1="255" y1="220" x2="225" y2="190" class="candidate"/>
    <line x1="255" y1="220" x2="255" y2="190" class="candidate"/>
    <line x1="255" y1="220" x2="225" y2="220" class="candidate"/>
    <line x1="255" y1="220" x2="225" y2="250" class="candidate"/>
    <line x1="255" y1="220" x2="255" y2="250" class="candidate"/>
    <line x1="135" y1="220" x2="105" y2="220" class="candidate"/>
    <line x1="135" y1="220" x2="165" y2="220" class="candidate"/>
    <line x1="135" y1="220" x2="105" y2="250" class="candidate"/>
    <line x1="135" y1="220" x2="135" y2="250" class="candidate"/>
    <line x1="135" y1="220" x2="165" y2="250" class="candidate"/>
    <line x1="135" y1="250" x2="105" y2="220" class="candidate"/>
    <line x1="135" y1="250" x2="135" y2="220" class="candidate"/>
    <line x1="135" y1="250" x2="165" y2="220" class="candidate"/>
    <line x1="135" y1="250" x2="105" y2="250" class="candidate"/>
    <line x1="135" y1="250" x2="165" y2="250" class="candidate"/>
    <line x1="135" y1="250" x2="105" y2="280" class="candidate"/>
    <line x1="135" y1="250" x2="135" y2="280" class="candidate"/>
    <line x1="135" y1="250" x2="165" y2="280" class="candidate"/>
    <line x1="165" y1="250" x2="135" y2="220" class="candidate"/>
    <line x1="165" y1="250" x2="165" y2="220" class="candidate"/>
    <line x1="165" y1="250" x2="195" y2="220" class="candidate"/>
    <line x1="165" y1="250" x2="135" y2="250" class="candidate"/>
    <line x1="165" y1="250" x2="195" y2="250" class="candidate"/>
    <line x1="165" y1="250" x2="135" y2="280" class="candidate"/>
    <line x1="165" y1="250" x2="165" y2="280" class="candidate"/>
    <line x1="165" y1="250" x2="195" y2="280" class="candidate"/>
    <line x1="195" y1="250" x2="165" y2="220" class="candidate"/>
    <line x1="195" y1="250" x2="195" y2="220" class="candidate"/>
    <line x1="195" y1="250" x2="225" y2="220" class="candidate"/>
    <line x1="195" y1="250" x2="165" y2="250" class="candidate"/>
    <line x1="195" y1="250" x2="225" y2="250" class="candidate"/>
    <line x1="195" y1="250" x2="165" y2="280" class="candidate"/>
    <line x1="195" y1="250" x2="195" y2="280" class="candidate"/>
    <line x1="195" y1="250" x2="225" y2="280" class="candidate"/>
    <line x1="165" y1="220" x2="135" y2="220" class="candidate"/>
    <line x1="165" y1="220" x2="195" y2="220" class="candidate"/>
    <line x1="165" y1="220" x2="135" y2="250" class="candidate"/>
    <line x1="165" y1="220" x2="165" y2="250" class="candidate"/>
    <line x1="165" y1="220" x2="195" y2="250" class="candidate"/>
    <line x1="225" y1="250" x2="195" y2="220" class="candidate"/>
    <line x1="225" y1="250" x2="225" y2="220" class="candidate"/>
    <line x1="225" y1="250" x2="255" y2="220" class="candidate"/>
    <line x1="225" y1="250" x2="195" y2="250" class="candidate"/>
    <line x1="225" y1="250" x2="255" y2="250" class="candidate"/>
    <line x1="225" y1="250" x2="195" y2="280" class="candidate"/>
    <line x1="225" y1="250" x2="225" y2="280" class="candidate"/>
    <line x1="225" y1="250" x2="255" y2="280" class="candidate"/>
    <line x1="255" y1="250" x2="225" y2="220" class="candidate"/>
    <line x1="255" y1="250" x2="255" y2="220" class="candidate"/>
    <line x1="255" y1="250" x2="225" y2="250" class="candidate"/>
    <line x1="255" y1="250" x2="225" y2="280" class="candidate"/>
    <line x1="255" y1="250" x2="255" y2="280" class="candidate"/>

    <!-- Reachable candidate cells within 3 steps -->
    <circle cx="225" cy="130" r="4" fill="#7c3aed"/>
    <circle cx="255" cy="130" r="4" fill="#7c3aed"/>
    <circle cx="225" cy="160" r="4" fill="#7c3aed"/>
    <circle cx="255" cy="160" r="4" fill="#7c3aed"/>
    <circle cx="225" cy="190" r="4" fill="#7c3aed"/>
    <circle cx="255" cy="190" r="4" fill="#7c3aed"/>
    <circle cx="105" cy="220" r="4" fill="#7c3aed"/>
    <circle cx="135" cy="220" r="4" fill="#7c3aed"/>
    <circle cx="165" cy="220" r="4" fill="#7c3aed"/>
    <circle cx="195" cy="220" r="4" fill="#7c3aed"/>
    <circle cx="225" cy="220" r="4" fill="#7c3aed"/>
    <circle cx="255" cy="220" r="4" fill="#7c3aed"/>
    <circle cx="105" cy="250" r="4" fill="#7c3aed"/>
    <circle cx="135" cy="250" r="4" fill="#7c3aed"/>
    <circle cx="165" cy="250" r="4" fill="#7c3aed"/>
    <circle cx="195" cy="250" r="4" fill="#7c3aed"/>
    <circle cx="225" cy="250" r="4" fill="#7c3aed"/>
    <circle cx="255" cy="250" r="4" fill="#7c3aed"/>
    <circle cx="105" cy="280" r="4" fill="#7c3aed"/>
    <circle cx="135" cy="280" r="4" fill="#7c3aed"/>
    <circle cx="165" cy="280" r="4" fill="#7c3aed"/>
    <circle cx="195" cy="280" r="4" fill="#7c3aed"/>
    <circle cx="225" cy="280" r="4" fill="#7c3aed"/>
    <circle cx="255" cy="280" r="4" fill="#7c3aed"/>





    <circle cx="45" cy="70" r="7" fill="#16a34a" stroke="#065f46" stroke-width="1.5"/>
    <circle cx="195" cy="190" r="8" class="current-cell"/>
    <text x="54" y="66" class="small">start</text>
    <text x="202" y="186" class="small">current</text>
    <text x="232" y="186" class="small">next</text>

    <text x="18" y="318" class="small">Partial running process: row-wise sweeping + rolling branches</text>
  </g>

  <line x1="355" y1="245" x2="435" y2="245" class="arrow"/>
  <line x1="760" y1="245" x2="840" y2="245" class="arrow"/>
  <text x="395" y="226" text-anchor="middle" class="small">state mapping</text>
  <text x="800" y="226" text-anchor="middle" class="small">activity support</text>

  <g transform="translate(80 455)">
    <rect x="0" y="0" width="1040" height="96" fill="#f9fafb" stroke="#d1d5db" rx="10"/>
    <rect x="22" y="18" width="18" height="18" class="uncovered grid"/>
    <text x="50" y="32" class="label">Uncovered cell / positive input</text>

    <rect x="302" y="18" width="18" height="18" class="covered grid"/>
    <text x="330" y="32" class="label">Covered cell / zero or weak input</text>

    <rect x="562" y="18" width="18" height="18" class="obstacle grid"/>
    <text x="590" y="32" class="label">Obstacle cell / inhibitory input</text>

    <circle cx="808" cy="27" r="8" class="current-cell"/>
    <text x="824" y="32" class="label">Current cell</text>

    <line x1="22" y1="65" x2="92" y2="65" class="history"/>
    <text x="105" y="70" class="label">Executed coverage trajectory</text>

    <line x1="382" y1="65" x2="452" y2="65" class="candidate"/>
    <text x="465" y="70" class="label">Rolling candidate branches</text>

    <line x1="722" y1="65" x2="792" y2="65" class="best"/>
    <text x="807" y="70" class="label">Selected branch; execute first cell only</text>
  </g>


</svg>
